<?xml version="1.0" encoding="UTF-8" standalone="no"?>
<!DOCTYPE svg PUBLIC "-//W3C//DTD SVG 1.1//EN" "http://www.w3.org/Graphics/SVG/1.1/DTD/svg11.dtd">
<svg width="100%" height="100%" viewBox="0 0 500 500" version="1.1" xmlns="http://www.w3.org/2000/svg" xmlns:xlink="http://www.w3.org/1999/xlink" xml:space="preserve" xmlns:serif="http://www.serif.com/" style="fill-rule:evenodd;clip-rule:evenodd;stroke-linejoin:round;stroke-miterlimit:2;">
    <g>
        <path d="M121.253,454.364C120.751,454.029 120.283,453.717 119.882,453.449C119.055,452.913 118.545,452.496 118.545,452.496C118.545,452.496 116.201,450.808 112.692,448.272C111.811,447.643 110.858,446.954 109.852,446.226C108.878,445.452 107.859,444.644 106.8,443.796C104.688,442.101 102.403,440.334 100.179,438.486C95.855,434.66 91.446,430.932 88.407,427.834C86.845,426.331 85.547,425.073 84.64,424.199C83.733,423.325 83.223,422.809 83.223,422.809C83.223,422.809 81.224,420.723 78.231,417.591C75.146,414.546 71.478,410.07 67.651,405.74C64.102,401.178 60.388,396.743 57.958,393.141C55.442,389.612 53.754,387.262 53.754,387.262L47.941,378.516C35.838,359.646 26.132,339.096 19.789,317.446C13.202,295.862 10.156,273.226 9.958,250.609L9.951,250.589L9.951,250.258L9.958,250.245C10.156,227.622 13.202,204.985 19.789,183.402C26.132,161.752 35.838,141.201 47.941,122.332L53.754,113.586C53.754,113.586 55.436,111.235 57.958,107.707C60.388,104.105 64.102,99.669 67.651,95.107C71.478,90.777 75.146,86.302 78.231,83.256C81.224,80.124 83.223,78.039 83.223,78.039C83.223,78.039 83.733,77.523 84.64,76.649C85.547,75.775 86.845,74.517 88.407,73.014C91.446,69.915 95.855,66.188 100.179,62.361C102.403,60.514 104.688,58.746 106.8,57.051C107.859,56.204 108.878,55.396 109.852,54.621C110.858,53.893 111.811,53.204 112.692,52.575C116.201,50.04 118.545,48.351 118.545,48.351C118.545,48.351 119.055,47.934 119.882,47.398C120.697,46.855 121.789,46.127 122.875,45.392L127.231,42.479C127.814,42.082 128.423,41.671 129.065,41.241C129.714,40.843 130.403,40.433 131.111,40.003C132.534,39.149 134.064,38.228 135.693,37.248C138.91,35.222 142.724,33.302 146.842,31.111C147.875,30.575 148.914,29.992 150.007,29.462C151.106,28.953 152.231,28.43 153.377,27.9C155.661,26.834 158.031,25.735 160.481,24.603C165.493,22.636 170.73,20.286 176.43,18.445C198.961,10.262 227.086,5.197 255.29,5.085C283.494,5.197 311.619,10.262 334.143,18.445C339.85,20.286 345.081,22.63 350.099,24.603C352.542,25.735 354.913,26.834 357.203,27.893C358.342,28.43 359.468,28.953 360.567,29.462C361.659,29.992 362.699,30.575 363.738,31.111C367.85,33.302 371.663,35.222 374.881,37.248C376.51,38.228 378.039,39.149 379.462,40.003C380.177,40.433 380.859,40.843 381.515,41.241C382.15,41.671 382.76,42.082 383.342,42.479L387.699,45.392C388.791,46.127 389.877,46.855 390.698,47.398C391.519,47.934 392.029,48.351 392.029,48.351C392.029,48.351 394.372,50.04 397.888,52.575C398.769,53.204 399.715,53.893 400.722,54.621C401.695,55.396 402.721,56.204 403.78,57.051C405.892,58.746 408.177,60.514 410.395,62.361C414.725,66.188 419.134,69.915 422.173,73.014C423.729,74.517 425.026,75.775 425.94,76.649C426.847,77.523 427.35,78.039 427.35,78.039C427.35,78.039 429.35,80.124 432.349,83.256C435.434,86.302 439.102,90.777 442.922,95.107C446.471,99.669 450.192,104.105 452.615,107.707C455.138,111.235 456.819,113.586 456.819,113.586L462.639,122.332C474.742,141.201 484.448,161.752 490.784,183.402C497.378,204.985 500.417,227.622 500.622,250.238L500.622,250.258L500.629,250.424L500.622,250.589L500.622,250.602C500.417,273.226 497.378,295.862 490.784,317.446C484.448,339.096 474.742,359.646 462.639,378.516L456.819,387.262C456.819,387.262 455.138,389.612 452.615,393.141C450.192,396.743 446.471,401.178 442.922,405.74C439.102,410.07 435.434,414.546 432.349,417.591C429.35,420.723 427.35,422.809 427.35,422.809C427.35,422.809 426.847,423.325 425.94,424.199C425.026,425.073 423.729,426.331 422.173,427.834C419.134,430.932 414.725,434.66 410.395,438.486C408.177,440.334 405.892,442.101 403.78,443.796C402.721,444.644 401.695,445.452 400.722,446.226C399.715,446.954 398.769,447.643 397.888,448.272C394.372,450.808 392.029,452.496 392.029,452.496C392.029,452.496 391.519,452.913 390.698,453.449C390.192,453.787 389.578,454.196 388.923,454.634L388.923,447.932C390.028,447.156 391.121,446.364 392.194,445.544C394.108,444.127 396.054,442.757 397.948,441.314L403.529,436.851L406.323,434.633L414.407,427.602C416.181,426.013 417.869,424.325 419.604,422.696C421.312,421.034 423.106,419.465 424.715,417.704C437.149,404.827 448.212,390.678 457.945,375.616C469.73,357.111 479.231,337.017 485.448,315.837C491.923,294.73 494.922,272.577 495.114,250.424C494.922,228.271 491.923,206.118 485.448,185.011C479.231,163.831 469.73,143.737 457.938,125.232C447.544,109.223 435.752,94.134 422.266,80.661C409.474,68.141 395.405,56.992 380.429,47.173C379.866,46.796 379.264,46.392 378.641,45.975C377.999,45.591 377.331,45.187 376.635,44.77C375.245,43.935 373.749,43.042 372.153,42.088C369.008,40.109 365.274,38.248 361.255,36.11C360.242,35.587 359.229,35.017 358.157,34.501C357.084,34.004 355.985,33.494 354.866,32.978C352.628,31.945 350.311,30.873 347.921,29.767C343.015,27.854 337.91,25.55 332.329,23.762C310.322,15.784 282.852,10.851 255.29,10.739C227.721,10.851 200.252,15.784 178.244,23.762C172.669,25.55 167.558,27.854 162.652,29.767C160.262,30.873 157.945,31.945 155.707,32.978C154.595,33.494 153.496,34.004 152.423,34.507C151.351,35.017 150.331,35.587 149.325,36.11C145.299,38.248 141.572,40.109 138.42,42.088C136.825,43.042 135.328,43.935 133.938,44.77C133.243,45.187 132.574,45.591 131.932,45.975C131.31,46.398 130.714,46.796 130.144,47.18C126.198,49.861 122.173,52.41 118.386,55.303C116.472,56.72 114.519,58.091 112.632,59.534L107.051,63.996L104.251,66.214L96.167,73.245C94.399,74.834 92.711,76.523 90.969,78.151C89.268,79.813 87.474,81.382 85.865,83.144C73.431,96.021 62.361,110.169 52.635,125.232C40.85,143.737 31.349,163.831 25.126,185.011C18.651,206.118 15.658,228.271 15.466,250.424C15.658,272.577 18.651,294.73 25.126,315.837C31.349,337.017 40.85,357.111 52.635,375.616C63.036,391.625 74.828,406.713 88.314,420.187C98.537,430.197 109.581,439.332 121.253,447.611L121.253,454.364Z" style="fill:rgb(0,73,172);"/>
    </g>
    <g transform="matrix(1,0,0,1,197.245,522.585)">
        <g>
            <g>
                <path d="M-48.464,-81.674L-38.612,-77.278C-35.527,-75.9 -33.461,-74.1 -32.415,-71.875C-31.356,-69.65 -31.429,-67.201 -32.627,-64.539C-33.885,-61.732 -35.712,-59.931 -38.109,-59.137C-40.493,-58.362 -43.234,-58.66 -46.319,-60.037L-52.013,-62.579L-55.323,-55.164L-59.481,-57.018L-48.464,-81.674ZM-45.975,-76.086L-50.318,-66.34L-44.809,-63.904C-40.857,-62.116 -38.149,-62.877 -36.679,-66.181C-35.249,-69.372 -36.514,-71.862 -40.466,-73.649L-45.975,-76.086Z" style="fill:rgb(180,22,22);fill-rule:nonzero;"/>
            </g>
        </g>
    </g>
    <g transform="matrix(1,0,0,1,228.031,535.812)">
        <g>
            <g>
                <path d="M-34.163,-73.702L-48.252,-77.993L-50.371,-71.028L-37.765,-67.188L-38.957,-63.294L-51.563,-67.135L-53.761,-59.984L-39.248,-55.561L-40.44,-51.668L-59.322,-57.442L-51.43,-83.263L-32.971,-77.622L-34.163,-73.702Z" style="fill:rgb(180,22,22);fill-rule:nonzero;"/>
            </g>
        </g>
    </g>
    <g transform="matrix(1,0,0,1,259.678,545.146)">
        <g>
            <g>
                <path d="M-36.123,-54.052L-40.519,-54.793L-51.536,-76.245L-54.714,-57.15L-59.216,-57.892L-54.793,-84.534L-50.371,-83.792L-39.274,-62.288L-36.096,-81.435L-31.7,-80.694L-36.123,-54.052Z" style="fill:rgb(180,22,22);fill-rule:nonzero;"/>
            </g>
        </g>
    </g>
    <g transform="matrix(1,0,0,1,297.632,550.877)">
        <g>
            <g>
                <path d="M-35.752,-57.892L-40.228,-57.998L-54.184,-77.648L-54.608,-58.289L-59.163,-58.395L-58.581,-85.408L-54.105,-85.302L-40.069,-65.599L-39.645,-85.011L-35.169,-84.905L-35.752,-57.892Z" style="fill:rgb(180,22,22);fill-rule:nonzero;"/>
            </g>
        </g>
    </g>
    <g transform="matrix(1,0,0,1,352.579,549.569)">
        <g>
            <g>
                <path d="M-36.202,-63.374L-40.599,-62.553L-58.263,-78.999L-54.74,-59.958L-59.216,-59.11L-64.142,-85.673L-59.746,-86.494L-41.976,-70.021L-45.524,-89.115L-41.128,-89.936L-36.202,-63.374Z" style="fill:rgb(180,22,22);fill-rule:nonzero;"/>
            </g>
        </g>
    </g>
    <g transform="matrix(1,0,0,1,389.877,541.886)">
        <g>
            <g>
                <path d="M-56.224,-64.857L-45.101,-68.379L-43.856,-64.433L-59.322,-59.534L-67.452,-85.302L-63.109,-86.679L-56.224,-64.857Z" style="fill:rgb(180,22,22);fill-rule:nonzero;"/>
            </g>
        </g>
    </g>
    <g transform="matrix(1,0,0,1,416.511,533.185)">
        <g>
            <g>
                <path d="M-70.498,-84.587L-60.646,-88.983C-57.561,-90.36 -54.84,-90.691 -52.489,-89.989C-50.126,-89.281 -48.345,-87.593 -47.14,-84.931C-45.889,-82.124 -45.776,-79.562 -46.796,-77.251C-47.802,-74.954 -49.854,-73.12 -52.94,-71.743L-58.633,-69.2L-55.323,-61.785L-59.481,-59.931L-70.498,-84.587ZM-64.672,-82.707L-60.328,-72.961L-54.82,-75.397C-50.867,-77.178 -49.623,-79.721 -51.086,-83.024C-52.516,-86.216 -55.211,-86.924 -59.163,-85.143L-64.672,-82.707Z" style="fill:rgb(180,22,22);fill-rule:nonzero;"/>
            </g>
        </g>
    </g>
    <g>
        <clipPath id="_clip1">
            <rect x="64.513" y="58.501" width="381.356" height="381.356"/>
        </clipPath>
        <g clip-path="url(#_clip1)">
            <path d="M368.604,217.108C368.604,211.851 372.881,207.574 378.138,207.574C383.395,207.574 387.672,211.851 387.672,217.108C387.672,222.365 383.395,226.642 378.138,226.642C372.881,226.642 368.604,222.365 368.604,217.108ZM386.653,275.252C369.915,278.383 354.926,284.574 342.115,293.644C328.449,303.324 317.3,316.294 308.859,332.263C306.8,329.284 304.621,326.397 302.344,323.583C312.255,280.628 329.529,255.621 342.406,242.148C352.403,231.694 361.328,226.404 365.791,224.172C368.247,228.449 372.861,231.336 378.138,231.336C385.984,231.336 392.366,224.954 392.366,217.108C392.366,209.256 385.984,202.873 378.138,202.873C370.293,202.873 363.91,209.256 363.91,217.108C363.91,218.002 363.996,218.876 364.155,219.723C359.468,221.994 349.993,227.476 339.255,238.639C326.231,252.191 308.885,276.986 298.583,319.108C297.021,317.327 295.432,315.579 293.783,313.877C289.354,259.011 305.734,212.626 342.485,175.993C364.764,153.78 388.281,141.989 397.014,138.076C421.1,168.724 435.481,207.342 435.481,249.252C435.481,257.806 434.872,266.208 433.72,274.437C425.033,273.126 407.137,271.418 386.653,275.252ZM370.372,339.46C370.372,334.203 374.649,329.926 379.906,329.926C385.163,329.926 389.44,334.203 389.44,339.46C389.44,344.717 385.163,348.994 379.906,348.994C374.649,348.994 370.372,344.717 370.372,339.46ZM336.573,410.057C335.123,396.709 332.428,384.084 328.555,372.239C344.326,350.371 360.13,344.028 365.969,342.353C367.313,348.815 373.047,353.688 379.906,353.688C387.758,353.688 394.141,347.305 394.141,339.46C394.141,331.614 387.758,325.232 379.906,325.232C372.722,325.232 366.764,330.581 365.81,337.507C360.269,338.851 343.684,344.551 326.695,366.863C323.57,358.336 319.816,350.232 315.413,342.591C330.038,311.189 354.515,292.022 388.215,285.62C407.104,282.031 423.941,283.607 431.958,284.785C420.961,339.566 385.037,385.454 336.573,410.057ZM257.793,429.443C252.542,422.623 234.964,399.1 220.399,371.087C205.469,342.373 190.85,303.257 203.8,276.94C212.242,278.555 234.872,283.951 258.408,298.676C268.121,304.747 276.807,311.619 284.494,319.26C284.799,319.684 285.176,320.061 285.593,320.372C292.876,327.781 299.219,335.904 304.608,344.743C304.833,345.332 305.164,345.889 305.595,346.372C316.658,365.062 323.557,386.838 326.205,411.566C326.318,412.646 326.748,413.619 327.403,414.387C306.032,423.762 282.508,429.092 257.793,429.443ZM192.002,418.002C188.619,414.711 174.795,400.543 163.268,377.721C145.591,342.724 141.744,305.462 151.834,266.982L151.9,266.724C152.423,264.215 164.499,205.363 157.448,178.317C157.342,176.702 157.131,169.008 162.255,164.592C167.188,160.342 176.311,159.819 188.645,163.076L188.937,163.142L208.607,167.154C194.266,174.192 184.196,188.122 182.256,204.303C179.807,224.689 180.138,252.443 194.697,271.703C187.997,284.872 186.547,301.397 190.407,320.875C193.637,337.202 200.596,355.727 211.103,375.927C222.981,398.775 236.533,418.359 244.452,429.138C226.099,428.046 208.481,424.199 192.002,418.002ZM75.053,249.252C75.053,221.954 81.164,196.054 92.075,172.842C99.55,169.67 129.456,158.322 147.544,170.895C146.604,175.722 147.034,179.555 147.067,179.86C147.1,180.111 147.153,180.363 147.219,180.601C153.727,204.476 142.293,261.388 141.664,264.46C135.785,286.964 134.421,309.481 137.613,331.376C140.181,348.927 145.67,366.115 153.913,382.448C158.984,392.492 164.453,400.947 169.412,407.673C113.255,377.119 75.053,317.558 75.053,249.252ZM118.571,131.952C126.576,133.991 148.636,141.135 153.423,158.614C152.721,159.382 152.099,160.183 151.543,161.004C134.964,150.914 113.155,154.807 99.292,159.064C104.886,149.431 111.348,140.354 118.571,131.952ZM156.197,98.788C163.215,106.091 180.489,126.854 176.344,150.523C171.067,150.324 166.426,150.986 162.454,152.503C155.939,135.242 137.659,126.907 126.496,123.312C135.481,114.129 145.438,105.899 156.197,98.788ZM255.27,69.041C267.181,69.041 278.814,70.207 290.089,72.431C281.932,81.641 268.015,99.828 257.349,126.622C248.14,149.762 243.293,174.55 242.956,200.311C242.585,227.86 247.411,256.568 257.296,285.838C232.7,271.968 210.52,267.413 203.734,266.274C190.579,249.815 190.407,224.311 192.658,205.561C194.399,191.009 204.555,178.8 218.532,174.45L230.038,170.875C232.323,170.16 233.832,167.995 233.713,165.605C233.594,163.215 231.872,161.216 229.529,160.732L191.175,152.907C189.665,152.516 188.189,152.165 186.745,151.867C189.076,137.758 185.646,122.762 176.682,108.163C172.749,101.761 168.492,96.617 165.294,93.154C191.79,77.827 222.524,69.041 255.27,69.041ZM298.126,138.076C298.126,132.819 302.403,128.542 307.667,128.542C312.917,128.542 317.194,132.819 317.194,138.076C317.194,143.333 312.917,147.61 307.667,147.61C302.403,147.61 298.126,143.333 298.126,138.076ZM390.023,129.734C379.138,134.845 356.958,146.868 335.401,168.26C318.042,185.487 304.74,205.224 295.862,226.927C286.288,250.318 281.886,276.02 282.72,303.489C281.323,302.304 279.893,301.145 278.449,300.007C270.994,243.32 277.946,205.177 285.15,183.071C290.877,165.519 297.65,155.078 300.967,150.636C302.966,151.702 305.244,152.311 307.667,152.311C315.506,152.311 321.895,145.922 321.895,138.076C321.895,130.224 315.506,123.841 307.667,123.841C299.815,123.841 293.426,130.224 293.426,138.076C293.426,141.81 294.876,145.207 297.233,147.749C293.677,152.476 286.752,163.169 280.82,181.23C273.577,203.238 266.572,240.757 273.219,296.047C272.729,295.697 272.246,295.339 271.756,294.988C243.32,221.405 253.37,165.234 266.883,130.992C279.052,100.159 296.127,81.045 301.874,75.166C336.434,84.421 366.923,103.721 390.023,129.734ZM430.972,175.026C421.372,152.317 407.62,131.925 390.109,114.413C372.597,96.901 352.205,83.157 329.495,73.55C305.985,63.606 281.012,58.561 255.27,58.561C229.522,58.561 204.548,63.606 181.038,73.55C158.336,83.157 137.937,96.901 120.425,114.413C117.81,117.035 115.287,119.723 112.838,122.471L112.507,122.835C98.735,138.354 87.666,155.866 79.562,175.026C69.617,198.537 64.572,223.51 64.572,249.252C64.572,275 69.617,299.974 79.562,323.484C89.168,346.186 102.92,366.585 120.425,384.097C137.937,401.602 158.336,415.354 181.038,424.96C183.057,425.814 185.09,426.615 187.123,427.397C187.315,427.483 187.5,427.549 187.692,427.609C209.243,435.792 231.939,439.95 255.27,439.95L255.277,439.95C281.018,439.95 305.985,434.905 329.495,424.96C352.205,415.354 372.597,401.602 390.109,384.097C407.62,366.585 421.372,346.186 430.972,323.484C440.916,299.974 445.961,275 445.961,249.252C445.961,223.51 440.916,198.537 430.972,175.026" style="fill:rgb(0,73,172);fill-rule:nonzero;"/>
        </g>
    </g>
    <path d="M289.506,353.171C273.841,327.331 251.807,309.865 225.801,302.648C223.02,301.867 220.127,303.509 219.352,306.296C218.578,309.084 220.213,311.97 223.001,312.738C246.623,319.3 265.923,334.633 280.383,358.322C291.327,376.278 295.213,392.532 295.253,392.691C295.809,395.114 297.967,396.749 300.344,396.749C300.742,396.749 301.139,396.703 301.536,396.61C304.356,395.955 306.111,393.141 305.456,390.32C305.29,389.605 301.245,372.524 289.506,353.171" style="fill:rgb(0,73,172);fill-rule:nonzero;"/>
</svg>
